<?xml version="1.0" encoding="utf-8"?>
<!-- Generator: Adobe Illustrator 26.1.0, SVG Export Plug-In . SVG Version: 6.00 Build 0)  -->
<svg version="1.1" id="Слой_1" xmlns="http://www.w3.org/2000/svg" x="0px" y="0px"
	 viewBox="0 0 28 28" style="enable-background:new 0 0 28 28;" xml:space="preserve">
<style type="text/css">
	.st0{fill:#FFFFFF;}
	.st1{fill:none;stroke:#000000;stroke-width:2;stroke-miterlimit:10;}
	.st2{fill:none;stroke:#000000;stroke-width:0.9494;stroke-miterlimit:10;}
</style>
<g>
	<path class="st0" d="M10.1,19.6c-5.2,0-9.5-4.2-9.5-9.5s4.2-9.5,9.5-9.5s9.5,4.2,9.5,9.5S15.3,19.6,10.1,19.6z"/>
	<path d="M10.1,1.2c4.9,0,8.9,4,8.9,8.9S15,19,10.1,19s-8.9-4-8.9-8.9S5.2,1.2,10.1,1.2 M10.1,0.1c-5.5,0-10,4.5-10,10s4.5,10,10,10
		s10-4.5,10-10S15.6,0.1,10.1,0.1L10.1,0.1z"/>
</g>
<g>
	<path class="st1" d="M27.1,27.1"/>
</g>
<g>
	<path class="st1" d="M17.1,17.1"/>
</g>
<g>
	<line class="st2" x1="8.1" y1="3.1" x2="8" y2="17.1"/>
</g>
<g>
	<line class="st2" x1="11.1" y1="3.1" x2="11" y2="17.1"/>
</g>
<g>
	<circle class="st0" cx="10.1" cy="10.1" r="5.5"/>
	<path d="M10.1,5.1c2.8,0,5,2.2,5,5s-2.2,5-5,5s-5-2.2-5-5S7.3,5.1,10.1,5.1 M10.1,4.1c-3.3,0-6,2.7-6,6s2.7,6,6,6s6-2.7,6-6
		S13.4,4.1,10.1,4.1L10.1,4.1z"/>
</g>
<g>
	<rect x="12.1" y="7.1" class="st0" width="6" height="6"/>
</g>
<path d="M27.5,27.5L27.5,27.5c-0.6,0.6-1.6,0.6-2.2,0l-10-10c0,0,2.2-2.2,2.2-2.2l10,10C28.2,25.9,28.2,26.9,27.5,27.5z"/>
</svg>
