<?xml version="1.0" standalone="no"?>
<!DOCTYPE svg PUBLIC "-//W3C//DTD SVG 20010904//EN"
 "http://www.w3.org/TR/2001/REC-SVG-20010904/DTD/svg10.dtd">
<svg version="1.0" xmlns="http://www.w3.org/2000/svg"
 width="491.000000pt" height="458.000000pt" viewBox="0 0 491.000000 458.000000"
 preserveAspectRatio="xMidYMid meet">
<metadata>
Created by potrace 1.16, written by Peter Selinger 2001-2019
</metadata>
<g transform="translate(0.000000,458.000000) scale(0.100000,-0.100000)"
fill="#000000" stroke="none">
<path d="M3344 4181 c-40 -24 -59 -76 -44 -117 6 -16 163 -181 353 -371 l342
-343 -1688 0 c-1848 0 -1739 4 -1771 -59 -20 -38 -20 -64 0 -102 32 -63 -77
-59 1771 -59 l1688 0 -342 -342 c-190 -191 -347 -356 -353 -372 -15 -41 4 -93
44 -117 37 -23 67 -24 104 -5 15 8 226 214 470 458 l442 444 0 44 0 44 -442
444 c-244 244 -455 450 -470 458 -37 19 -67 18 -104 -5z"/>
<path d="M1205 2471 c-16 -10 -222 -212 -457 -448 -294 -293 -431 -437 -436
-458 -5 -17 -5 -43 -1 -60 11 -38 869 -900 917 -921 68 -30 142 22 142 100 0
40 -4 45 -345 386 -190 190 -345 349 -345 353 0 4 764 7 1699 7 1688 0 1698 0
1724 20 38 30 52 80 33 123 -30 72 112 67 -1768 67 l-1693 0 337 338 c185 185
341 347 347 359 35 69 -12 153 -86 153 -21 0 -51 -9 -68 -19z"/>
</g>
</svg>
